<svg width="100%" height="200px" viewBox="0 0 1440 320" xmlns="http://www.w3.org/2000/svg">
  <path fill="#f57c00" fill-opacity="1" d="M0,160L48,149.3C96,139,192,117,288,112C384,107,480,117,576,138.7C672,160,768,192,864,181.3C960,171,1056,117,1152,85.3C1248,53,1344,43,1392,37.3L1440,32L1440,0L1392,0C1344,0,1248,0,1152,0C1056,0,960,0,864,0C768,0,672,0,576,0C480,0,384,0,288,0C192,0,96,0,48,0L0,0Z"></path>
  <path fill="#ff914d" fill-opacity="0.7" d="M0,224L48,208C96,192,192,160,288,154.7C384,149,480,171,576,181.3C672,192,768,192,864,186.7C960,181,1056,171,1152,170.7C1248,171,1344,181,1392,186.7L1440,192L1440,0L1392,0C1344,0,1248,0,1152,0C1056,0,960,0,864,0C768,0,672,0,576,0C480,0,384,0,288,0C192,0,96,0,48,0L0,0Z"></path>
</svg>
