<svg width="100%" height="220px" viewBox="0 0 1440 320" xmlns="http://www.w3.org/2000/svg">
  <path fill="#FFD700" fill-opacity="1" d="M0,160L80,133.3C160,107,320,53,480,90.7C640,128,800,256,960,245.3C1120,235,1280,85,1360,42.7L1440,0V320H1360C1280,320,1120,320,960,320C800,320,640,320,480,320C320,320,160,320,80,320H0Z"/>
  <path fill="#FFB600" fill-opacity="0.8" d="M0,256L80,245.3C160,235,320,213,480,186.7C640,160,800,128,960,101.3C1120,75,1280,53,1360,42.7L1440,32V320H1360C1280,320,1120,320,960,320C800,320,640,320,480,320C320,320,160,320,80,320H0Z"/>
</svg>
