<svg width="100%" height="220px" viewBox="0 0 1440 320" xmlns="http://www.w3.org/2000/svg">
  <path fill="#ff914d" fill-opacity="1" d="M0,96L48,106.7C96,117,192,139,288,160C384,181,480,203,576,192C672,181,768,139,864,133.3C960,128,1056,160,1152,181.3C1248,203,1344,213,1392,218.7L1440,224L1440,0L1392,0C1344,0,1248,0,1152,0C1056,0,960,0,864,0C768,0,672,0,576,0C480,0,384,0,288,0C192,0,96,0,48,0L0,0Z"></path>
  <path fill="#ff6f61" fill-opacity="0.8" d="M0,224L48,213.3C96,203,192,181,288,165.3C384,149,480,139,576,144C672,149,768,171,864,170.7C960,171,1056,149,1152,133.3C1248,117,1344,107,1392,101.3L1440,96L1440,0L1392,0C1344,0,1248,0,1152,0C1056,0,960,0,864,0C768,0,672,0,576,0C480,0,384,0,288,0C192,0,96,0,48,0L0,0Z"></path>
</svg>
